<svg width="1080" height="1080" viewBox="0 0 1080 1080" fill="none" xmlns="http://www.w3.org/2000/svg">
<rect width="1080" height="1080" fill="#0043FF"/>
<path d="M764.199 940.601C752.884 940.601 741.595 937.638 731.459 931.737L283.894 670.67C252.569 652.412 241.856 611.953 259.929 580.305C278.001 548.657 318.048 537.835 349.374 556.093L698.719 759.871V614.89C698.719 577.791 728.761 546.567 765.456 547.255C801.024 547.943 829.678 577.289 829.678 613.408V872.966C829.678 895.485 819.097 916.998 800.553 929.488C789.553 936.897 776.876 940.601 764.199 940.601Z" fill="white"/>
<path d="M316.479 139C327.794 139 339.083 141.964 349.219 147.865L796.784 408.931C828.11 427.189 838.822 467.649 820.75 499.296C802.677 530.944 762.63 541.767 731.305 523.508L381.959 319.73V464.711C381.959 501.81 351.917 533.034 315.222 532.346C279.654 531.659 251 502.313 251 466.193V206.635C251 184.116 261.581 162.603 280.125 150.114C291.126 142.705 303.803 139 316.479 139Z" fill="white"/>
</svg>
