<svg width="579" height="802" viewBox="0 0 579 802" fill="none" xmlns="http://www.w3.org/2000/svg">
<path d="M513.199 801.602C501.884 801.602 490.595 798.638 480.459 792.737L32.8941 531.67C1.56871 513.412 -9.1438 472.953 8.92852 441.305C27.0008 409.657 67.0482 398.835 98.3736 417.093L447.719 620.871V475.89C447.719 438.791 477.761 407.567 514.456 408.255C550.024 408.943 578.678 438.289 578.678 474.408V733.966C578.678 756.485 568.097 777.998 549.553 790.488C538.553 797.897 525.876 801.602 513.199 801.602Z" fill="#0043FF"/>
<path d="M65.4796 -1.36234e-05C76.7945 -1.36234e-05 88.0831 2.9637 98.2193 8.86457L545.784 269.931C577.11 288.189 587.822 328.649 569.75 360.296C551.678 391.944 511.63 402.767 480.305 384.508L130.959 180.73V325.711C130.959 362.81 100.917 394.035 64.2225 393.347C28.6541 392.659 0.00012345 363.313 0.00012345 327.193V67.635C0.00012345 45.1165 10.5816 23.6034 29.1254 11.1137C40.1259 3.70454 52.8028 -1.36234e-05 65.4796 -1.36234e-05Z" fill="#0043FF"/>
</svg>
