<svg width="86" height="13" viewBox="0 0 86 13" fill="none" xmlns="http://www.w3.org/2000/svg">
<path d="M15.5808 11.8262C15.2372 11.8262 14.8944 11.7371 14.5865 11.5597L3.97714 5.43414V9.79229C3.97714 10.9075 3.06478 11.8461 1.95039 11.8254C0.870199 11.8047 0 10.9226 0 9.83684V2.02813C0 1.45303 0.229085 0.893849 0.65782 0.510453C1.31325 -0.075777 2.24947 -0.156911 2.98285 0.266256L13.5923 6.39343V2.03529C13.5923 0.920096 14.5046 -0.0185074 15.619 0.00217369C16.6992 0.0228548 17.5694 0.904984 17.5694 1.99074V9.79309C17.5694 10.47 17.248 11.1167 16.6849 11.4921C16.35 11.7148 15.9658 11.8262 15.5808 11.8262Z" fill="#0043FF"/>
<path d="M34.8986 11.8262C34.5613 11.8262 34.2193 11.7403 33.9059 11.5597L23.2965 5.43414V9.79229C23.2965 10.9075 22.3841 11.8461 21.2697 11.8254C20.1895 11.8047 19.3193 10.9226 19.3193 9.83684V2.02813C19.3193 1.45303 19.5484 0.893849 19.9772 0.510453C20.6326 -0.075777 21.5688 -0.156911 22.3022 0.266256L35.8945 8.11394C36.8458 8.66278 37.1711 9.87899 36.6223 10.8303C36.254 11.4698 35.5858 11.8262 34.8986 11.8262Z" fill="#0043FF"/>
<path d="M46.3543 11.8262C46.0107 11.8262 45.6679 11.7371 45.36 11.5597L31.7678 3.71205C30.8164 3.1632 30.4911 1.94699 31.04 0.995663C31.5888 0.0443324 32.805 -0.280999 33.7563 0.267846L44.3658 6.39343V2.03528C44.3658 0.920096 45.2781 -0.018508 46.3925 0.00217309C47.4727 0.0228542 48.3429 0.904983 48.3429 1.99074V9.79309C48.3429 10.47 48.0215 11.1167 47.4584 11.4921C47.1243 11.7148 46.7393 11.8262 46.3543 11.8262Z" fill="#0043FF"/>
<path d="M52.1204 11.8254C51.006 11.8469 50.0936 10.9075 50.0936 9.79229V2.03449C50.0936 0.919302 51.006 -0.0193019 52.1204 0.00137918C53.2006 0.0220603 54.0708 0.904189 54.0708 1.98995V9.83763C54.07 10.9226 53.2006 11.8055 52.1204 11.8254Z" fill="#0043FF"/>
<path d="M63.3319 0.382332L61.2893 2.23409L63.4337 4.91309H62.8801L60.9838 2.5268L60.1184 3.31587V4.91309H59.692V0.382332H60.1184V2.81952L62.7592 0.382332H63.3319ZM66.4719 3.83767C66.3997 4.20675 66.2428 4.49734 66.001 4.70946C65.7592 4.91733 65.4495 5.02126 65.0719 5.02126C64.618 5.02126 64.2531 4.86642 63.9774 4.55673C63.7059 4.24705 63.5701 3.83343 63.5701 3.31587C63.5701 2.79831 63.708 2.3762 63.9838 2.04955C64.2638 1.71865 64.6243 1.5532 65.0655 1.5532C65.528 1.5532 65.8822 1.71653 66.1282 2.04318C66.3785 2.36984 66.5037 2.77498 66.5037 3.2586V3.37314H63.9774C63.9774 3.7507 64.0686 4.06675 64.251 4.32129C64.4377 4.57158 64.7156 4.69673 65.0846 4.69673C65.6234 4.69673 65.9564 4.41038 66.0837 3.83767H66.4719ZM66.1028 3.0486C66.0816 2.68377 65.9776 2.39954 65.791 2.19591C65.6043 1.98803 65.3583 1.8841 65.0528 1.8841C64.7219 1.8841 64.4695 1.99228 64.2956 2.20863C64.1259 2.42499 64.0198 2.70498 63.9774 3.0486H66.1028ZM67.4554 0.382332V4.91309H67.0608V0.382332H67.4554ZM71.0925 4.58855V4.894C70.9949 4.92793 70.8889 4.9449 70.7743 4.9449C70.6004 4.9449 70.4859 4.89187 70.4307 4.78582C70.3756 4.67976 70.348 4.5334 70.348 4.34674C70.0722 4.7837 69.6607 5.00217 69.1135 5.00217C68.7783 5.00217 68.5153 4.92157 68.3244 4.76036C68.1378 4.59916 68.0444 4.37432 68.0444 4.08584C68.0444 3.49616 68.4496 3.1589 69.2598 3.07406C69.3023 3.06982 69.3616 3.06557 69.438 3.06133C69.5144 3.05285 69.5695 3.04648 69.6035 3.04224C69.6416 3.038 69.6883 3.03376 69.7435 3.02951C69.8028 3.02103 69.8453 3.01467 69.8707 3.01042C69.9004 3.00618 69.9344 2.99982 69.9725 2.99133C70.015 2.98285 70.0468 2.97436 70.068 2.96588C70.0934 2.9574 70.1189 2.94891 70.1443 2.94043C70.1698 2.9277 70.1931 2.91497 70.2143 2.90225C70.2907 2.85134 70.3289 2.7474 70.3289 2.59044C70.3289 2.33166 70.2568 2.14924 70.1125 2.04318C69.9683 1.93713 69.7562 1.8841 69.4762 1.8841C69.2004 1.8841 68.9883 1.94773 68.8398 2.075C68.6956 2.19803 68.6108 2.39105 68.5853 2.65407H68.2035C68.2205 2.30196 68.3435 2.03046 68.5726 1.83955C68.8017 1.64865 69.1177 1.5532 69.5207 1.5532C69.8941 1.5532 70.1868 1.6338 70.3989 1.79501C70.6152 1.95622 70.7234 2.18954 70.7234 2.49499V4.27674C70.7234 4.36159 70.7255 4.4231 70.7298 4.46128C70.734 4.49522 70.751 4.52916 70.7807 4.5631C70.8146 4.59279 70.8677 4.60764 70.9398 4.60764C70.9949 4.60764 71.0458 4.60128 71.0925 4.58855ZM70.3289 3.13133C70.2907 3.17375 70.2271 3.20981 70.138 3.23951C70.0531 3.26496 69.9747 3.28405 69.9025 3.29678C69.8304 3.3095 69.7074 3.32647 69.5335 3.34769C69.491 3.35193 69.4592 3.35617 69.438 3.36041C69.3023 3.37738 69.1898 3.39647 69.1007 3.41768C69.0159 3.43889 68.9162 3.47495 68.8017 3.52586C68.6914 3.57253 68.6065 3.6404 68.5471 3.72949C68.492 3.81434 68.4644 3.92039 68.4644 4.04766C68.4644 4.23856 68.5323 4.39129 68.668 4.50583C68.8038 4.61613 68.9862 4.67128 69.2153 4.67128C69.525 4.67128 69.788 4.58007 70.0044 4.39765C70.2207 4.21099 70.3289 3.96706 70.3289 3.66586V3.13133ZM71.9487 1.64229V5.12944C71.9487 5.31186 71.9402 5.4561 71.9233 5.56215C71.9105 5.66821 71.8787 5.77215 71.8278 5.87396C71.7812 5.98002 71.7027 6.05426 71.5924 6.09668C71.4821 6.14335 71.3378 6.16668 71.1597 6.16668C71.1172 6.16668 71.0515 6.16032 70.9624 6.14759V5.81669C71.0091 5.82093 71.06 5.82305 71.1151 5.82305C71.2297 5.82305 71.3124 5.81245 71.3633 5.79124C71.4184 5.77427 71.463 5.717 71.4969 5.61943C71.5351 5.52185 71.5542 5.37125 71.5542 5.16762V1.64229H71.9487ZM71.9487 0.356878V1.01231H71.5542V0.356878H71.9487ZM75.5668 4.58855V4.894C75.4692 4.92793 75.3631 4.9449 75.2486 4.9449C75.0747 4.9449 74.9601 4.89187 74.905 4.78582C74.8498 4.67976 74.8223 4.5334 74.8223 4.34674C74.5465 4.7837 74.135 5.00217 73.5878 5.00217C73.2526 5.00217 72.9896 4.92157 72.7987 4.76036C72.612 4.59916 72.5187 4.37432 72.5187 4.08584C72.5187 3.49616 72.9238 3.1589 73.7341 3.07406C73.7765 3.06982 73.8359 3.06557 73.9123 3.06133C73.9886 3.05285 74.0438 3.04648 74.0777 3.04224C74.1159 3.038 74.1626 3.03376 74.2177 3.02951C74.2771 3.02103 74.3195 3.01467 74.345 3.01042C74.3747 3.00618 74.4086 2.99982 74.4468 2.99133C74.4892 2.98285 74.5211 2.97436 74.5423 2.96588C74.5677 2.9574 74.5932 2.94891 74.6186 2.94043C74.6441 2.9277 74.6674 2.91497 74.6886 2.90225C74.765 2.85134 74.8032 2.7474 74.8032 2.59044C74.8032 2.33166 74.731 2.14924 74.5868 2.04318C74.4426 1.93713 74.2305 1.8841 73.9505 1.8841C73.6747 1.8841 73.4626 1.94773 73.3141 2.075C73.1699 2.19803 73.085 2.39105 73.0596 2.65407H72.6778C72.6948 2.30196 72.8178 2.03046 73.0469 1.83955C73.2759 1.64865 73.592 1.5532 73.995 1.5532C74.3683 1.5532 74.6611 1.6338 74.8732 1.79501C75.0895 1.95622 75.1977 2.18954 75.1977 2.49499V4.27674C75.1977 4.36159 75.1998 4.4231 75.2041 4.46128C75.2083 4.49522 75.2253 4.52916 75.255 4.5631C75.2889 4.59279 75.3419 4.60764 75.4141 4.60764C75.4692 4.60764 75.5201 4.60128 75.5668 4.58855ZM74.8032 3.13133C74.765 3.17375 74.7014 3.20981 74.6123 3.23951C74.5274 3.26496 74.4489 3.28405 74.3768 3.29678C74.3047 3.3095 74.1817 3.32647 74.0077 3.34769C73.9653 3.35193 73.9335 3.35617 73.9123 3.36041C73.7765 3.37738 73.6641 3.39647 73.575 3.41768C73.4902 3.43889 73.3905 3.47495 73.2759 3.52586C73.1656 3.57253 73.0808 3.6404 73.0214 3.72949C72.9663 3.81434 72.9387 3.92039 72.9387 4.04766C72.9387 4.23856 73.0066 4.39129 73.1423 4.50583C73.2781 4.61613 73.4605 4.67128 73.6896 4.67128C73.9993 4.67128 74.2623 4.58007 74.4786 4.39765C74.695 4.21099 74.8032 3.96706 74.8032 3.66586V3.13133ZM78.752 1.64229L77.3521 2.84497L78.8475 4.91309H78.3448L77.0403 3.1186L76.3912 3.67222V4.91309H76.0094V0.382332H76.3912V3.23951L78.2175 1.64229H78.752ZM81.9337 1.64229L80.5338 2.84497L82.0292 4.91309H81.5265L80.222 3.1186L79.5729 3.67222V4.91309H79.1911V0.382332H79.5729V3.23951L81.3992 1.64229H81.9337ZM85.23 4.58855V4.894C85.1324 4.92793 85.0263 4.9449 84.9118 4.9449C84.7379 4.9449 84.6233 4.89187 84.5682 4.78582C84.513 4.67976 84.4855 4.5334 84.4855 4.34674C84.2097 4.7837 83.7982 5.00217 83.251 5.00217C82.9158 5.00217 82.6528 4.92157 82.4619 4.76036C82.2752 4.59916 82.1819 4.37432 82.1819 4.08584C82.1819 3.49616 82.587 3.1589 83.3973 3.07406C83.4397 3.06982 83.4991 3.06557 83.5755 3.06133C83.6518 3.05285 83.707 3.04648 83.7409 3.04224C83.7791 3.038 83.8258 3.03376 83.8809 3.02951C83.9403 3.02103 83.9827 3.01467 84.0082 3.01042C84.0379 3.00618 84.0718 2.99982 84.11 2.99133C84.1524 2.98285 84.1843 2.97436 84.2055 2.96588C84.2309 2.9574 84.2564 2.94891 84.2818 2.94043C84.3073 2.9277 84.3306 2.91497 84.3518 2.90225C84.4282 2.85134 84.4664 2.7474 84.4664 2.59044C84.4664 2.33166 84.3942 2.14924 84.25 2.04318C84.1058 1.93713 83.8937 1.8841 83.6137 1.8841C83.3379 1.8841 83.1258 1.94773 82.9773 2.075C82.8331 2.19803 82.7482 2.39105 82.7228 2.65407H82.341C82.358 2.30196 82.481 2.03046 82.7101 1.83955C82.9391 1.64865 83.2552 1.5532 83.6582 1.5532C84.0315 1.5532 84.3242 1.6338 84.5364 1.79501C84.7527 1.95622 84.8609 2.18954 84.8609 2.49499V4.27674C84.8609 4.36159 84.863 4.4231 84.8673 4.46128C84.8715 4.49522 84.8885 4.52916 84.9182 4.5631C84.9521 4.59279 85.0051 4.60764 85.0773 4.60764C85.1324 4.60764 85.1833 4.60128 85.23 4.58855ZM84.4664 3.13133C84.4282 3.17375 84.3645 3.20981 84.2755 3.23951C84.1906 3.26496 84.1121 3.28405 84.04 3.29678C83.9679 3.3095 83.8449 3.32647 83.6709 3.34769C83.6285 3.35193 83.5967 3.35617 83.5755 3.36041C83.4397 3.37738 83.3273 3.39647 83.2382 3.41768C83.1534 3.43889 83.0537 3.47495 82.9391 3.52586C82.8288 3.57253 82.744 3.6404 82.6846 3.72949C82.6295 3.81434 82.6019 3.92039 82.6019 4.04766C82.6019 4.23856 82.6698 4.39129 82.8055 4.50583C82.9413 4.61613 83.1237 4.67128 83.3528 4.67128C83.6625 4.67128 83.9255 4.58007 84.1418 4.39765C84.3582 4.21099 84.4664 3.96706 84.4664 3.66586V3.13133ZM60.9265 7.64229V7.96682H60.252V10.0413C60.252 10.1516 60.2541 10.2301 60.2584 10.2767C60.2626 10.3192 60.2754 10.3722 60.2966 10.4358C60.322 10.4952 60.3644 10.5355 60.4238 10.5567C60.4832 10.5779 60.5638 10.5886 60.6656 10.5886C60.725 10.5886 60.812 10.5822 60.9265 10.5695V10.9131C60.795 10.9301 60.6784 10.9385 60.5766 10.9385C60.182 10.9385 59.9551 10.8134 59.8957 10.5631C59.8702 10.457 59.8575 10.2174 59.8575 9.84403V7.96682H59.2784V7.64229H59.8575V6.64323H60.252V7.64229H60.9265ZM64.3749 10.5886V10.894C64.2773 10.9279 64.1712 10.9449 64.0567 10.9449C63.8828 10.9449 63.7682 10.8919 63.7131 10.7858C63.6579 10.6798 63.6303 10.5334 63.6303 10.3467C63.3546 10.7837 62.9431 11.0022 62.3958 11.0022C62.0607 11.0022 61.7977 10.9216 61.6068 10.7604C61.4201 10.5992 61.3268 10.3743 61.3268 10.0858C61.3268 9.49616 61.7319 9.1589 62.5422 9.07406C62.5846 9.06982 62.644 9.06557 62.7204 9.06133C62.7967 9.05285 62.8519 9.04648 62.8858 9.04224C62.924 9.038 62.9707 9.03376 63.0258 9.02951C63.0852 9.02103 63.1276 9.01467 63.1531 9.01042C63.1828 9.00618 63.2167 8.99982 63.2549 8.99133C63.2973 8.98285 63.3291 8.97436 63.3504 8.96588C63.3758 8.9574 63.4013 8.94891 63.4267 8.94043C63.4522 8.9277 63.4755 8.91497 63.4967 8.90225C63.5731 8.85134 63.6113 8.7474 63.6113 8.59044C63.6113 8.33166 63.5391 8.14924 63.3949 8.04318C63.2507 7.93713 63.0385 7.8841 62.7586 7.8841C62.4828 7.8841 62.2707 7.94773 62.1222 8.075C61.978 8.19803 61.8931 8.39105 61.8677 8.65407H61.4859C61.5028 8.30196 61.6259 8.03046 61.855 7.83955C62.084 7.64865 62.4001 7.5532 62.8031 7.5532C63.1764 7.5532 63.4691 7.6338 63.6813 7.79501C63.8976 7.95622 64.0058 8.18954 64.0058 8.49499V10.2767C64.0058 10.3616 64.0079 10.4231 64.0122 10.4613C64.0164 10.4952 64.0334 10.5292 64.0631 10.5631C64.097 10.5928 64.15 10.6076 64.2221 10.6076C64.2773 10.6076 64.3282 10.6013 64.3749 10.5886ZM63.6113 9.13133C63.5731 9.17375 63.5094 9.20981 63.4204 9.23951C63.3355 9.26496 63.257 9.28405 63.1849 9.29678C63.1128 9.3095 62.9898 9.32647 62.8158 9.34769C62.7734 9.35193 62.7416 9.35617 62.7204 9.36041C62.5846 9.37738 62.4722 9.39647 62.3831 9.41768C62.2983 9.43889 62.1986 9.47495 62.084 9.52586C61.9737 9.57253 61.8889 9.6404 61.8295 9.72949C61.7743 9.81434 61.7468 9.92039 61.7468 10.0477C61.7468 10.2386 61.8147 10.3913 61.9504 10.5058C62.0862 10.6161 62.2686 10.6713 62.4977 10.6713C62.8073 10.6713 63.0704 10.5801 63.2867 10.3976C63.5031 10.211 63.6113 9.96706 63.6113 9.66586V9.13133ZM67.3501 7.64229L66.0647 11.034C65.9035 11.4667 65.7635 11.7615 65.6447 11.9185C65.5259 12.0755 65.3435 12.154 65.0975 12.154C64.9914 12.154 64.8747 12.1433 64.7475 12.1221V11.7721C64.8663 11.8018 64.9617 11.8167 65.0338 11.8167C65.195 11.8167 65.3159 11.7573 65.3965 11.6385C65.4814 11.5197 65.5768 11.314 65.6829 11.0213C65.6871 11.0043 65.6914 10.9916 65.6956 10.9831C65.6999 10.9788 65.7041 10.9704 65.7084 10.9576C65.7126 10.9449 65.7168 10.9322 65.7211 10.9194C65.7253 10.911 65.7296 10.9004 65.7338 10.8876L64.4166 7.64229H64.8557L65.7402 9.89494C65.7741 9.98403 65.8399 10.1771 65.9374 10.474C66.0477 10.1134 66.1135 9.90554 66.1347 9.8504L66.9429 7.64229H67.3501ZM70.2957 7.64229L69.0103 11.034C68.8491 11.4667 68.7091 11.7615 68.5903 11.9185C68.4715 12.0755 68.2891 12.154 68.043 12.154C67.937 12.154 67.8203 12.1433 67.693 12.1221V11.7721C67.8118 11.8018 67.9073 11.8167 67.9794 11.8167C68.1406 11.8167 68.2615 11.7573 68.3421 11.6385C68.427 11.5197 68.5224 11.314 68.6285 11.0213C68.6327 11.0043 68.6369 10.9916 68.6412 10.9831C68.6454 10.9788 68.6497 10.9704 68.6539 10.9576C68.6582 10.9449 68.6624 10.9322 68.6666 10.9194C68.6709 10.911 68.6751 10.9004 68.6794 10.8876L67.3621 7.64229H67.8012L68.6857 9.89494C68.7197 9.98403 68.7854 10.1771 68.883 10.474C68.9933 10.1134 69.0591 9.90554 69.0803 9.8504L69.8884 7.64229H70.2957ZM72.0895 7.54684C72.5604 7.54684 72.9337 7.7038 73.2094 8.01773C73.4894 8.33166 73.6294 8.75589 73.6294 9.29041C73.6294 9.8207 73.4915 10.2407 73.2158 10.5504C72.94 10.8558 72.5646 11.0085 72.0895 11.0085C71.6143 11.0085 71.2346 10.8537 70.9504 10.544C70.6704 10.2301 70.5304 9.80797 70.5304 9.27769C70.5304 8.75164 70.6704 8.33166 70.9504 8.01773C71.2346 7.7038 71.6143 7.54684 72.0895 7.54684ZM72.9167 8.2659C72.7088 8.01137 72.431 7.8841 72.0831 7.8841C71.7352 7.8841 71.4574 8.01137 71.2495 8.2659C71.0416 8.5162 70.9377 8.85346 70.9377 9.27769C70.9377 9.7104 71.0395 10.0519 71.2431 10.3022C71.451 10.5525 71.7352 10.6776 72.0958 10.6776C72.4437 10.6776 72.7194 10.5525 72.9231 10.3022C73.1267 10.0519 73.2285 9.71252 73.2285 9.28405C73.2285 8.85558 73.1246 8.5162 72.9167 8.2659ZM75.9054 7.59138V7.99864C75.8884 7.99864 75.8672 7.99864 75.8417 7.99864C75.8205 7.9944 75.8057 7.99228 75.7972 7.99228C75.5512 7.99228 75.3306 8.0644 75.1354 8.20863C74.9445 8.34863 74.8172 8.53529 74.7536 8.76861C74.7027 8.968 74.6772 9.23739 74.6772 9.57677V10.9131H74.2827V7.64229H74.6582V8.42499C74.7981 8.12379 74.9594 7.91167 75.1418 7.78865C75.3242 7.66138 75.5787 7.59562 75.9054 7.59138ZM76.8372 6.38233V7.71229L76.7417 9.77403H76.5063L76.4108 7.71229V6.38233H76.8372ZM76.8626 10.2831V10.9131H76.3854V10.2831H76.8626Z" fill="#0043FF"/>
</svg>
