<svg width="195" height="29" viewBox="0 0 195 29" fill="none" xmlns="http://www.w3.org/2000/svg">
<path d="M35.3286 26.8152C34.5495 26.8152 33.7721 26.6132 33.0741 26.211L9.01793 12.3216V22.2035C9.01793 24.7321 6.94922 26.8603 4.42239 26.8134C1.97313 26.7665 0 24.7664 0 22.3045V4.59866C0 3.29467 0.519436 2.02675 1.49157 1.15742C2.97772 -0.17182 5.10054 -0.355787 6.76344 0.60372L30.8197 14.4967V4.61489C30.8197 2.08627 32.8884 -0.0419645 35.4152 0.00492873C37.8645 0.0518219 39.8376 2.052 39.8376 4.51389V22.2053C39.8376 23.7401 39.1089 25.2064 37.832 26.0577C37.0727 26.5627 36.2016 26.8152 35.3286 26.8152Z" fill="black"/>
<path d="M79.1305 26.8152C78.3658 26.8152 77.5902 26.6204 76.8796 26.211L52.8234 12.3216V22.2035C52.8234 24.7321 50.7547 26.8603 48.2279 26.8134C45.7786 26.7665 43.8055 24.7664 43.8055 22.3045V4.59866C43.8055 3.29467 44.3249 2.02675 45.2971 1.15742C46.7832 -0.17182 48.906 -0.355787 50.5689 0.60372L81.3886 18.3979C83.5457 19.6424 84.2833 22.4 83.0389 24.5571C82.2038 26.0072 80.6888 26.8152 79.1305 26.8152Z" fill="black"/>
<path d="M105.106 26.8152C104.327 26.8152 103.549 26.6132 102.851 26.211L72.0316 8.41685C69.8745 7.17238 69.1368 4.4147 70.3813 2.25761C71.6258 0.100521 74.3835 -0.63715 76.5406 0.607324L100.597 14.4967V4.61489C100.597 2.08626 102.665 -0.0419659 105.192 0.00492736C107.642 0.0518206 109.615 2.052 109.615 4.51389V22.2053C109.615 23.7401 108.886 25.2064 107.609 26.0577C106.852 26.5627 105.979 26.8152 105.106 26.8152Z" fill="black"/>
<path d="M118.18 26.8134C115.653 26.8621 113.584 24.7321 113.584 22.2035V4.61309C113.584 2.08446 115.653 -0.043766 118.18 0.00312721C120.629 0.0500204 122.602 2.0502 122.602 4.51209V22.3063C122.601 24.7664 120.629 26.7683 118.18 26.8134Z" fill="black"/>
<path d="M143.604 1.13437L138.972 5.33312L143.835 11.4076H142.579L138.28 5.99684L136.317 7.78599V11.4076H135.351V1.13437H136.317V6.66056L142.305 1.13437H143.604ZM150.723 8.96915C150.56 9.80601 150.204 10.4649 149.656 10.9459C149.107 11.4172 148.405 11.6529 147.549 11.6529C146.52 11.6529 145.693 11.3018 145.067 10.5996C144.452 9.89739 144.144 8.95953 144.144 7.78599C144.144 6.61246 144.457 5.65536 145.082 4.91469C145.717 4.1644 146.534 3.78925 147.535 3.78925C148.583 3.78925 149.386 4.15959 149.944 4.90026C150.512 5.64093 150.796 6.55956 150.796 7.65614V7.91585H145.067C145.067 8.77195 145.274 9.48858 145.688 10.0657C146.111 10.6333 146.741 10.917 147.578 10.917C148.8 10.917 149.555 10.2677 149.843 8.96915H150.723ZM149.887 7.17999C149.839 6.35274 149.603 5.70826 149.18 5.24655C148.756 4.77521 148.198 4.53954 147.506 4.53954C146.756 4.53954 146.183 4.78483 145.789 5.2754C145.404 5.76598 145.164 6.40084 145.067 7.17999H149.887ZM152.953 1.13437V11.4076H152.059V1.13437H152.953ZM161.2 10.6717V11.3643C160.979 11.4413 160.739 11.4797 160.479 11.4797C160.085 11.4797 159.825 11.3595 159.7 11.119C159.575 10.8785 159.512 10.5467 159.512 10.1234C158.887 11.1142 157.954 11.6096 156.713 11.6096C155.953 11.6096 155.357 11.4268 154.924 11.0613C154.501 10.6958 154.289 10.186 154.289 9.53186C154.289 8.19481 155.208 7.43009 157.045 7.2377C157.141 7.22808 157.276 7.21847 157.449 7.20885C157.622 7.18961 157.747 7.17518 157.824 7.16556C157.911 7.15594 158.017 7.14632 158.142 7.1367C158.276 7.11747 158.372 7.10304 158.43 7.09342C158.498 7.0838 158.574 7.06937 158.661 7.05013C158.757 7.03089 158.829 7.01165 158.877 6.99242C158.935 6.97318 158.993 6.95394 159.051 6.9347C159.108 6.90584 159.161 6.87699 159.209 6.84813C159.382 6.7327 159.469 6.49703 159.469 6.14112C159.469 5.55436 159.306 5.14074 158.978 4.90026C158.651 4.65978 158.17 4.53954 157.536 4.53954C156.91 4.53954 156.429 4.68383 156.093 4.9724C155.766 5.25136 155.573 5.68903 155.516 6.28541H154.65C154.688 5.48702 154.967 4.8714 155.487 4.43854C156.006 4.00568 156.723 3.78925 157.637 3.78925C158.483 3.78925 159.147 3.97201 159.628 4.33754C160.118 4.70307 160.364 5.23212 160.364 5.92469V9.96472C160.364 10.1571 160.368 10.2966 160.378 10.3832C160.388 10.4601 160.426 10.5371 160.493 10.614C160.57 10.6813 160.691 10.715 160.854 10.715C160.979 10.715 161.095 10.7006 161.2 10.6717ZM159.469 7.36756C159.382 7.46375 159.238 7.54552 159.036 7.61285C158.844 7.67056 158.666 7.71385 158.502 7.74271C158.339 7.77157 158.06 7.81004 157.665 7.85814C157.569 7.86776 157.497 7.87738 157.449 7.88699C157.141 7.92547 156.886 7.96876 156.684 8.01685C156.492 8.06495 156.266 8.14671 156.006 8.26214C155.756 8.36795 155.564 8.52186 155.429 8.72386C155.304 8.91624 155.241 9.15672 155.241 9.44529C155.241 9.87815 155.395 10.2244 155.703 10.4842C156.011 10.7343 156.425 10.8593 156.944 10.8593C157.646 10.8593 158.243 10.6525 158.733 10.2389C159.224 9.81563 159.469 9.26253 159.469 8.57957V7.36756ZM163.142 3.99125V11.8982C163.142 12.3118 163.123 12.6388 163.084 12.8793C163.055 13.1198 162.983 13.3555 162.868 13.5863C162.762 13.8268 162.584 13.9951 162.334 14.0913C162.084 14.1971 161.757 14.25 161.353 14.25C161.257 14.25 161.107 14.2356 160.905 14.2068V13.4565C161.011 13.4661 161.127 13.4709 161.252 13.4709C161.511 13.4709 161.699 13.4468 161.814 13.3988C161.94 13.3603 162.041 13.2304 162.118 13.0092C162.204 12.7879 162.247 12.4465 162.247 11.9847V3.99125H163.142ZM163.142 1.07666V2.56281H162.247V1.07666H163.142ZM171.346 10.6717V11.3643C171.124 11.4413 170.884 11.4797 170.624 11.4797C170.23 11.4797 169.97 11.3595 169.845 11.119C169.72 10.8785 169.658 10.5467 169.658 10.1234C169.032 11.1142 168.099 11.6096 166.858 11.6096C166.098 11.6096 165.502 11.4268 165.069 11.0613C164.646 10.6958 164.434 10.186 164.434 9.53186C164.434 8.19481 165.353 7.43009 167.19 7.2377C167.286 7.22808 167.421 7.21847 167.594 7.20885C167.767 7.18961 167.892 7.17518 167.969 7.16556C168.056 7.15594 168.162 7.14632 168.287 7.1367C168.421 7.11747 168.518 7.10304 168.575 7.09342C168.643 7.0838 168.72 7.06937 168.806 7.05013C168.902 7.03089 168.975 7.01165 169.023 6.99242C169.08 6.97318 169.138 6.95394 169.196 6.9347C169.253 6.90584 169.306 6.87699 169.354 6.84813C169.528 6.7327 169.614 6.49703 169.614 6.14112C169.614 5.55436 169.451 5.14074 169.124 4.90026C168.797 4.65978 168.316 4.53954 167.681 4.53954C167.056 4.53954 166.575 4.68383 166.238 4.9724C165.911 5.25136 165.718 5.68903 165.661 6.28541H164.795C164.834 5.48702 165.112 4.8714 165.632 4.43854C166.151 4.00568 166.868 3.78925 167.782 3.78925C168.628 3.78925 169.292 3.97201 169.773 4.33754C170.264 4.70307 170.509 5.23212 170.509 5.92469V9.96472C170.509 10.1571 170.514 10.2966 170.523 10.3832C170.533 10.4601 170.571 10.5371 170.639 10.614C170.716 10.6813 170.836 10.715 170.999 10.715C171.124 10.715 171.24 10.7006 171.346 10.6717ZM169.614 7.36756C169.528 7.46375 169.383 7.54552 169.181 7.61285C168.989 7.67056 168.811 7.71385 168.647 7.74271C168.484 7.77157 168.205 7.81004 167.811 7.85814C167.714 7.86776 167.642 7.87738 167.594 7.88699C167.286 7.92547 167.031 7.96876 166.829 8.01685C166.637 8.06495 166.411 8.14671 166.151 8.26214C165.901 8.36795 165.709 8.52186 165.574 8.72386C165.449 8.91624 165.387 9.15672 165.387 9.44529C165.387 9.87815 165.541 10.2244 165.848 10.4842C166.156 10.7343 166.57 10.8593 167.089 10.8593C167.791 10.8593 168.388 10.6525 168.878 10.2389C169.369 9.81563 169.614 9.26253 169.614 8.57957V7.36756ZM178.568 3.99125L175.394 6.71827L178.784 11.4076H177.645L174.687 7.3387L173.215 8.594V11.4076H172.349V1.13437H173.215V7.61285L177.356 3.99125H178.568ZM185.782 3.99125L182.608 6.71827L185.999 11.4076H184.859L181.901 7.3387L180.429 8.594V11.4076H179.564V1.13437H180.429V7.61285L184.57 3.99125H185.782ZM193.256 10.6717V11.3643C193.035 11.4413 192.795 11.4797 192.535 11.4797C192.141 11.4797 191.881 11.3595 191.756 11.119C191.631 10.8785 191.568 10.5467 191.568 10.1234C190.943 11.1142 190.01 11.6096 188.769 11.6096C188.009 11.6096 187.413 11.4268 186.98 11.0613C186.557 10.6958 186.345 10.186 186.345 9.53186C186.345 8.19481 187.264 7.43009 189.101 7.2377C189.197 7.22808 189.332 7.21847 189.505 7.20885C189.678 7.18961 189.803 7.17518 189.88 7.16556C189.967 7.15594 190.072 7.14632 190.198 7.1367C190.332 7.11747 190.428 7.10304 190.486 7.09342C190.553 7.0838 190.63 7.06937 190.717 7.05013C190.813 7.03089 190.885 7.01165 190.933 6.99242C190.991 6.97318 191.049 6.95394 191.107 6.9347C191.164 6.90584 191.217 6.87699 191.265 6.84813C191.438 6.7327 191.525 6.49703 191.525 6.14112C191.525 5.55436 191.361 5.14074 191.034 4.90026C190.707 4.65978 190.226 4.53954 189.592 4.53954C188.966 4.53954 188.485 4.68383 188.149 4.9724C187.822 5.25136 187.629 5.68903 187.571 6.28541H186.706C186.744 5.48702 187.023 4.8714 187.543 4.43854C188.062 4.00568 188.779 3.78925 189.693 3.78925C190.539 3.78925 191.203 3.97201 191.684 4.33754C192.174 4.70307 192.42 5.23212 192.42 5.92469V9.96472C192.42 10.1571 192.424 10.2966 192.434 10.3832C192.444 10.4601 192.482 10.5371 192.549 10.614C192.626 10.6813 192.747 10.715 192.91 10.715C193.035 10.715 193.151 10.7006 193.256 10.6717ZM191.525 7.36756C191.438 7.46375 191.294 7.54552 191.092 7.61285C190.9 7.67056 190.722 7.71385 190.558 7.74271C190.395 7.77157 190.116 7.81004 189.721 7.85814C189.625 7.86776 189.553 7.87738 189.505 7.88699C189.197 7.92547 188.942 7.96876 188.74 8.01685C188.548 8.06495 188.322 8.14671 188.062 8.26214C187.812 8.36795 187.62 8.52186 187.485 8.72386C187.36 8.91624 187.297 9.15672 187.297 9.44529C187.297 9.87815 187.451 10.2244 187.759 10.4842C188.067 10.7343 188.481 10.8593 189 10.8593C189.702 10.8593 190.299 10.6525 190.789 10.2389C191.28 9.81563 191.525 9.26253 191.525 8.57957V7.36756ZM138.15 17.9913V18.7271H136.62V23.4309C136.62 23.681 136.625 23.8589 136.635 23.9647C136.644 24.0609 136.673 24.1812 136.721 24.3254C136.779 24.4601 136.875 24.5515 137.01 24.5996C137.145 24.6477 137.327 24.6717 137.558 24.6717C137.693 24.6717 137.89 24.6573 138.15 24.6284V25.4076C137.852 25.4461 137.587 25.4653 137.356 25.4653C136.462 25.4653 135.947 25.1815 135.812 24.614C135.755 24.3735 135.726 23.8301 135.726 22.9836V18.7271H134.413V17.9913H135.726V15.7259H136.62V17.9913H138.15ZM145.969 24.6717V25.3643C145.747 25.4413 145.507 25.4797 145.247 25.4797C144.853 25.4797 144.593 25.3595 144.468 25.119C144.343 24.8785 144.28 24.5467 144.28 24.1234C143.655 25.1142 142.722 25.6096 141.481 25.6096C140.721 25.6096 140.125 25.4268 139.692 25.0613C139.269 24.6958 139.057 24.186 139.057 23.5319C139.057 22.1948 139.976 21.4301 141.813 21.2377C141.909 21.2281 142.044 21.2185 142.217 21.2088C142.39 21.1896 142.515 21.1752 142.592 21.1656C142.679 21.1559 142.785 21.1463 142.91 21.1367C143.044 21.1175 143.141 21.103 143.198 21.0934C143.266 21.0838 143.343 21.0694 143.429 21.0501C143.525 21.0309 143.598 21.0117 143.646 20.9924C143.703 20.9732 143.761 20.9539 143.819 20.9347C143.876 20.9058 143.929 20.877 143.977 20.8481C144.151 20.7327 144.237 20.497 144.237 20.1411C144.237 19.5544 144.074 19.1407 143.747 18.9003C143.42 18.6598 142.939 18.5395 142.304 18.5395C141.679 18.5395 141.198 18.6838 140.861 18.9724C140.534 19.2514 140.341 19.689 140.284 20.2854H139.418C139.457 19.487 139.735 18.8714 140.255 18.4385C140.774 18.0057 141.491 17.7892 142.405 17.7892C143.251 17.7892 143.915 17.972 144.396 18.3375C144.887 18.7031 145.132 19.2321 145.132 19.9247V23.9647C145.132 24.1571 145.137 24.2966 145.146 24.3832C145.156 24.4601 145.194 24.5371 145.262 24.614C145.339 24.6813 145.459 24.715 145.622 24.715C145.747 24.715 145.863 24.7006 145.969 24.6717ZM144.237 21.3676C144.151 21.4638 144.006 21.5455 143.804 21.6128C143.612 21.6706 143.434 21.7139 143.27 21.7427C143.107 21.7716 142.828 21.81 142.434 21.8581C142.337 21.8678 142.265 21.8774 142.217 21.887C141.909 21.9255 141.654 21.9688 141.452 22.0169C141.26 22.0649 141.034 22.1467 140.774 22.2621C140.524 22.368 140.332 22.5219 140.197 22.7239C140.072 22.9162 140.01 23.1567 140.01 23.4453C140.01 23.8782 140.164 24.2244 140.471 24.4842C140.779 24.7343 141.193 24.8593 141.712 24.8593C142.414 24.8593 143.011 24.6525 143.501 24.2389C143.992 23.8156 144.237 23.2625 144.237 22.5796V21.3676ZM152.715 17.9913L149.8 25.6817C149.435 26.6629 149.117 27.3314 148.848 27.6873C148.579 28.0432 148.165 28.2212 147.607 28.2212C147.367 28.2212 147.102 28.1971 146.814 28.149V27.3555C147.083 27.4228 147.299 27.4565 147.463 27.4565C147.828 27.4565 148.102 27.3218 148.285 27.0525C148.478 26.7831 148.694 26.3166 148.935 25.6529C148.944 25.6144 148.954 25.5855 148.963 25.5663C148.973 25.5567 148.983 25.5375 148.992 25.5086C149.002 25.4797 149.011 25.4509 149.021 25.422C149.031 25.4028 149.04 25.3787 149.05 25.3499L146.063 17.9913H147.059L149.064 23.099C149.141 23.301 149.29 23.7387 149.512 24.412C149.762 23.5944 149.911 23.1231 149.959 22.998L151.791 17.9913H152.715ZM159.394 17.9913L156.479 25.6817C156.114 26.6629 155.796 27.3314 155.527 27.6873C155.258 28.0432 154.844 28.2212 154.286 28.2212C154.046 28.2212 153.781 28.1971 153.492 28.149V27.3555C153.762 27.4228 153.978 27.4565 154.142 27.4565C154.507 27.4565 154.781 27.3218 154.964 27.0525C155.157 26.7831 155.373 26.3166 155.613 25.6529C155.623 25.6144 155.633 25.5855 155.642 25.5663C155.652 25.5567 155.662 25.5375 155.671 25.5086C155.681 25.4797 155.69 25.4509 155.7 25.422C155.71 25.4028 155.719 25.3787 155.729 25.3499L152.742 17.9913H153.738L155.743 23.099C155.82 23.301 155.969 23.7387 156.191 24.412C156.441 23.5944 156.59 23.1231 156.638 22.998L158.47 17.9913H159.394ZM163.461 17.7748C164.529 17.7748 165.375 18.1307 166.001 18.8425C166.635 19.5544 166.953 20.5163 166.953 21.7283C166.953 22.9307 166.64 23.883 166.015 24.5852C165.39 25.2777 164.538 25.624 163.461 25.624C162.384 25.624 161.523 25.2729 160.878 24.5707C160.243 23.8589 159.926 22.9018 159.926 21.6994C159.926 20.5067 160.243 19.5544 160.878 18.8425C161.523 18.1307 162.384 17.7748 163.461 17.7748ZM165.337 19.4053C164.865 18.8281 164.235 18.5395 163.447 18.5395C162.658 18.5395 162.028 18.8281 161.556 19.4053C161.085 19.9728 160.849 20.7375 160.849 21.6994C160.849 22.6806 161.08 23.4549 161.542 24.0224C162.013 24.59 162.658 24.8737 163.475 24.8737C164.264 24.8737 164.889 24.59 165.351 24.0224C165.813 23.4549 166.044 22.6854 166.044 21.7139C166.044 20.7423 165.808 19.9728 165.337 19.4053ZM172.113 17.8758V18.7993C172.075 18.7993 172.027 18.7993 171.969 18.7993C171.921 18.7896 171.887 18.7848 171.868 18.7848C171.31 18.7848 170.81 18.9484 170.368 19.2754C169.935 19.5928 169.646 20.0161 169.502 20.5451C169.386 20.9972 169.329 21.608 169.329 22.3776V25.4076H168.434V17.9913H169.285V19.766C169.603 19.083 169.968 18.6021 170.382 18.3231C170.796 18.0345 171.373 17.8854 172.113 17.8758ZM174.226 15.1344V18.15L174.01 22.8249H173.476L173.259 18.15V15.1344H174.226ZM174.284 23.9792V25.4076H173.202V23.9792H174.284Z" fill="black"/>
</svg>
